<svg width="96" height="73" viewBox="0 0 96 73" fill="none" xmlns="http://www.w3.org/2000/svg">
<path d="M8.41756 59.4461H86.8755C88.1461 59.4461 89.099 58.46 89.099 57.1451V2.90556C89.099 1.59066 88.1461 0.604492 86.8755 0.604492H8.41756C7.3058 0.604492 6.35287 1.59066 6.35287 2.90556V57.1451C6.35287 58.46 7.3058 59.4461 8.41756 59.4461ZM0 67.4999C0 70.1297 2.06468 72.9238 4.76465 72.9238H90.5284C93.0696 72.9238 95.2931 70.1297 95.2931 67.4999H0Z" fill="#212528"/>
<path d="M87.352 59.4463H7.94109L0 67.5H95.2931L87.352 59.4463Z" fill="#DDDDDD"/>
<path d="M84.6518 60.1035H10.6409L7.94092 63.3908H87.3518L84.6518 60.1035Z" fill="#BFBEBE"/>
<path d="M55.7458 64.8691H39.546L38.2754 66.6771H57.0164L55.7458 64.8691Z" fill="#212528"/>
<path d="M11.1177 5.53516H84.1757V54.5151H11.1177V5.53516Z" fill="#3E4347"/>
<path d="M47.6451 4.54874C48.3468 4.54874 48.9157 3.96004 48.9157 3.23384C48.9157 2.50765 48.3468 1.91895 47.6451 1.91895C46.9434 1.91895 46.3745 2.50765 46.3745 3.23384C46.3745 3.96004 46.9434 4.54874 47.6451 4.54874Z" fill="#DDDDDD"/>
<path d="M54.475 70.9512H40.8164C40.3399 70.9512 39.0693 70.9512 39.0693 69.3076H56.2221C56.2221 70.9512 54.9515 70.9512 54.475 70.9512Z" fill="#3E4347"/>
</svg>
