<svg width="19" height="18" viewBox="0 0 19 18" fill="none" xmlns="http://www.w3.org/2000/svg">
<path fill-rule="evenodd" clip-rule="evenodd" d="M4.31818 0.897461C1.93332 0.897461 0 2.59183 0 4.68192C0 6.77204 1.93332 8.46639 4.31818 8.46639C6.70306 8.46639 8.63636 6.77204 8.63636 4.68192C8.63636 2.59183 6.70306 0.897461 4.31818 0.897461ZM1.72727 4.68192C1.72727 3.42786 2.88726 2.41125 4.31818 2.41125C5.74911 2.41125 6.90909 3.42786 6.90909 4.68192C6.90909 5.93599 5.74911 6.9526 4.31818 6.9526C2.88726 6.9526 1.72727 5.93599 1.72727 4.68192ZM14.6818 0.897461C12.297 0.897461 10.3636 2.59183 10.3636 4.68192C10.3636 6.77204 12.297 8.46639 14.6818 8.46639C17.0667 8.46639 19 6.77204 19 4.68192C19 2.59183 17.0667 0.897461 14.6818 0.897461ZM12.0909 4.68192C12.0909 3.42786 13.2509 2.41125 14.6818 2.41125C16.1127 2.41125 17.2727 3.42786 17.2727 4.68192C17.2727 5.93599 16.1127 6.9526 14.6818 6.9526C13.2509 6.9526 12.0909 5.93599 12.0909 4.68192ZM0 13.7646C0 11.6745 1.93332 9.98017 4.31818 9.98017C6.70306 9.98017 8.63636 11.6745 8.63636 13.7646C8.63636 15.8547 6.70306 17.5491 4.31818 17.5491C1.93332 17.5491 0 15.8547 0 13.7646ZM4.31818 11.494C2.88726 11.494 1.72727 12.5106 1.72727 13.7646C1.72727 15.0187 2.88726 16.0353 4.31818 16.0353C5.74911 16.0353 6.90909 15.0187 6.90909 13.7646C6.90909 12.5106 5.74911 11.494 4.31818 11.494ZM14.6818 9.98017C12.297 9.98017 10.3636 11.6745 10.3636 13.7646C10.3636 15.8547 12.297 17.5491 14.6818 17.5491C17.0667 17.5491 19 15.8547 19 13.7646C19 11.6745 17.0667 9.98017 14.6818 9.98017ZM12.0909 13.7646C12.0909 12.5106 13.2509 11.494 14.6818 11.494C16.1127 11.494 17.2727 12.5106 17.2727 13.7646C17.2727 15.0187 16.1127 16.0353 14.6818 16.0353C13.2509 16.0353 12.0909 15.0187 12.0909 13.7646Z" fill="#7E84A3"/>
</svg>
