<svg width="21" height="13" viewBox="0 0 21 13" fill="none" xmlns="http://www.w3.org/2000/svg">
<path d="M2.02955 5.73319C1.70177 5.38227 1.17031 5.38227 0.842519 5.73319C0.514733 6.0841 0.514733 6.65294 0.842519 7.00385L2.02955 5.73319ZM5.91261 11.1608L5.3191 11.7961C5.64688 12.147 6.17834 12.147 6.50613 11.7961L5.91261 11.1608ZM15.4593 2.21164C15.7871 1.86074 15.7871 1.29181 15.4593 0.940909C15.1315 0.590009 14.6001 0.590009 14.2723 0.940909L15.4593 2.21164ZM6.50613 5.73319C6.17834 5.38227 5.64688 5.38227 5.3191 5.73319C4.99131 6.0841 4.99131 6.65294 5.3191 7.00385L6.50613 5.73319ZM10.3892 11.1608L9.79571 11.7961C10.1235 12.147 10.6549 12.147 10.9827 11.7961L10.3892 11.1608ZM19.9358 2.21164C20.2636 1.86074 20.2636 1.29181 19.9358 0.940909C19.608 0.590009 19.0767 0.590009 18.7489 0.940909L19.9358 2.21164ZM0.842519 7.00385L5.3191 11.7961L6.50613 10.5254L2.02955 5.73319L0.842519 7.00385ZM6.50613 11.7961L15.4593 2.21164L14.2723 0.940909L5.3191 10.5254L6.50613 11.7961ZM5.3191 7.00385L9.79571 11.7961L10.9827 10.5254L6.50613 5.73319L5.3191 7.00385ZM10.9827 11.7961L19.9358 2.21164L18.7489 0.940909L9.79571 10.5254L10.9827 11.7961Z" fill="black"/>
</svg>
