<svg width="27" height="29" viewBox="0 0 27 29" fill="none" xmlns="http://www.w3.org/2000/svg">
<path d="M22.7812 8.51679H20.25V5.94558C20.25 5.49097 20.0722 5.05497 19.7557 4.73351C19.4393 4.41204 19.0101 4.23145 18.5625 4.23145H8.4375C7.98995 4.23145 7.56073 4.41204 7.24426 4.73351C6.92779 5.05497 6.75 5.49097 6.75 5.94558V8.51679H4.21875C3.54742 8.51679 2.90359 8.78769 2.42889 9.26988C1.95418 9.75208 1.6875 10.4061 1.6875 11.088V23.087C1.6875 23.5416 1.86529 23.9776 2.18176 24.2991C2.49822 24.6205 2.92745 24.8011 3.375 24.8011H23.625C24.0726 24.8011 24.5018 24.6205 24.8182 24.2991C25.1347 23.9776 25.3125 23.5416 25.3125 23.087V11.088C25.3125 10.4061 25.0458 9.75208 24.5711 9.26988C24.0964 8.78769 23.4526 8.51679 22.7812 8.51679ZM8.4375 5.94558H18.5625V8.51679H8.4375V5.94558ZM23.625 23.087H3.375V15.3734H10.125V19.6587H16.875V15.3734H23.625V23.087ZM11.8125 15.3734H15.1875V17.9446H11.8125V15.3734ZM3.375 13.6592V11.088C3.375 10.8607 3.46389 10.6427 3.62213 10.482C3.78036 10.3212 3.99497 10.2309 4.21875 10.2309H22.7812C23.005 10.2309 23.2196 10.3212 23.3779 10.482C23.5361 10.6427 23.625 10.8607 23.625 11.088V13.6592H3.375Z" fill="#7E84A3"/>
</svg>
