<svg width="21" height="12" viewBox="0 0 21 12" fill="none" xmlns="http://www.w3.org/2000/svg">
<path d="M1.95533 5.21658C1.62755 4.86567 1.09609 4.86567 0.768301 5.21658C0.440514 5.5675 0.440514 6.13634 0.768301 6.48725L1.95533 5.21658ZM5.8384 10.6442L5.24488 11.2795C5.57267 11.6304 6.10413 11.6304 6.43191 11.2795L5.8384 10.6442ZM15.385 1.69504C15.7128 1.34414 15.7128 0.775208 15.385 0.424308C15.0572 0.0734078 14.5259 0.0734078 14.1981 0.424308L15.385 1.69504ZM6.43191 5.21658C6.10413 4.86567 5.57267 4.86567 5.24488 5.21658C4.91709 5.5675 4.91709 6.13634 5.24488 6.48725L6.43191 5.21658ZM10.315 10.6442L9.72149 11.2795C10.0493 11.6304 10.5807 11.6304 10.9085 11.2795L10.315 10.6442ZM19.8616 1.69504C20.1894 1.34414 20.1894 0.775208 19.8616 0.424308C19.5338 0.0734078 19.0024 0.0734078 18.6747 0.424308L19.8616 1.69504ZM0.768301 6.48725L5.24488 11.2795L6.43191 10.0088L1.95533 5.21658L0.768301 6.48725ZM6.43191 11.2795L15.385 1.69504L14.1981 0.424308L5.24488 10.0088L6.43191 11.2795ZM5.24488 6.48725L9.72149 11.2795L10.9085 10.0088L6.43191 5.21658L5.24488 6.48725ZM10.9085 11.2795L19.8616 1.69504L18.6747 0.424308L9.72149 10.0088L10.9085 11.2795Z" fill="black"/>
</svg>
