<svg width="20" height="12" viewBox="0 0 20 12" fill="none" xmlns="http://www.w3.org/2000/svg">
<path d="M1.48854 5.52811C1.16075 5.1772 0.62929 5.1772 0.301504 5.52811C-0.0262825 5.87902 -0.0262825 6.44786 0.301504 6.79877L1.48854 5.52811ZM5.3716 10.9557L4.77808 11.591C5.10587 11.9419 5.63733 11.9419 5.96512 11.591L5.3716 10.9557ZM14.9182 2.00657C15.246 1.65567 15.246 1.08673 14.9182 0.735831C14.5904 0.384931 14.0591 0.384931 13.7313 0.735831L14.9182 2.00657ZM5.96512 5.52811C5.63733 5.1772 5.10587 5.1772 4.77808 5.52811C4.4503 5.87902 4.4503 6.44786 4.77808 6.79877L5.96512 5.52811ZM9.84818 10.9557L9.25469 11.591C9.58249 11.9419 10.1139 11.9419 10.4417 11.591L9.84818 10.9557ZM19.3948 2.00657C19.7226 1.65567 19.7226 1.08673 19.3948 0.735831C19.067 0.384931 18.5357 0.384931 18.2079 0.735831L19.3948 2.00657ZM0.301504 6.79877L4.77808 11.591L5.96512 10.3203L1.48854 5.52811L0.301504 6.79877ZM5.96512 11.591L14.9182 2.00657L13.7313 0.735831L4.77808 10.3203L5.96512 11.591ZM4.77808 6.79877L9.25469 11.591L10.4417 10.3203L5.96512 5.52811L4.77808 6.79877ZM10.4417 11.591L19.3948 2.00657L18.2079 0.735831L9.25469 10.3203L10.4417 11.591Z" fill="black"/>
</svg>
