<svg width="15" height="14" viewBox="0 0 15 14" fill="none" xmlns="http://www.w3.org/2000/svg">
<path d="M7.5 0.40625C7.16848 0.40625 6.85054 0.518048 6.61612 0.717049C6.3817 0.91605 6.25 1.18595 6.25 1.46738V5.71192H1.25C0.918479 5.71192 0.600537 5.82372 0.366116 6.02272C0.131696 6.22172 0 6.49162 0 6.77305C0 7.05448 0.131696 7.32439 0.366116 7.52339C0.600537 7.72239 0.918479 7.83419 1.25 7.83419H6.25V12.0787C6.25 12.3602 6.3817 12.6301 6.61612 12.8291C6.85054 13.0281 7.16848 13.1399 7.5 13.1399C7.83152 13.1399 8.14946 13.0281 8.38388 12.8291C8.6183 12.6301 8.75 12.3602 8.75 12.0787V7.83419H13.75C14.0815 7.83419 14.3995 7.72239 14.6339 7.52339C14.8683 7.32439 15 7.05448 15 6.77305C15 6.49162 14.8683 6.22172 14.6339 6.02272C14.3995 5.82372 14.0815 5.71192 13.75 5.71192H8.75V1.46738C8.75 1.18595 8.6183 0.91605 8.38388 0.717049C8.14946 0.518048 7.83152 0.40625 7.5 0.40625Z" fill="white"/>
</svg>
