<svg width="21" height="12" viewBox="0 0 21 12" fill="none" xmlns="http://www.w3.org/2000/svg">
<path d="M2.15455 5.60916C1.82677 5.25825 1.29531 5.25825 0.967519 5.60916C0.639733 5.96007 0.639733 6.52891 0.967519 6.87983L2.15455 5.60916ZM6.03761 11.0367L5.4441 11.6721C5.77188 12.023 6.30334 12.023 6.63113 11.6721L6.03761 11.0367ZM15.5843 2.08762C15.9121 1.73672 15.9121 1.16779 15.5843 0.816886C15.2565 0.465986 14.7251 0.465986 14.3973 0.816886L15.5843 2.08762ZM6.63113 5.60916C6.30334 5.25825 5.77188 5.25825 5.4441 5.60916C5.11631 5.96007 5.11631 6.52891 5.4441 6.87983L6.63113 5.60916ZM10.5142 11.0367L9.92071 11.6721C10.2485 12.023 10.7799 12.023 11.1077 11.6721L10.5142 11.0367ZM20.0608 2.08762C20.3886 1.73672 20.3886 1.16779 20.0608 0.816886C19.733 0.465986 19.2017 0.465986 18.8739 0.816886L20.0608 2.08762ZM0.967519 6.87983L5.4441 11.6721L6.63113 10.4014L2.15455 5.60916L0.967519 6.87983ZM6.63113 11.6721L15.5843 2.08762L14.3973 0.816886L5.4441 10.4014L6.63113 11.6721ZM5.4441 6.87983L9.92071 11.6721L11.1077 10.4014L6.63113 5.60916L5.4441 6.87983ZM11.1077 11.6721L20.0608 2.08762L18.8739 0.816886L9.92071 10.4014L11.1077 11.6721Z" fill="black"/>
</svg>
