<svg width="22" height="16" viewBox="0 0 22 16" fill="none" xmlns="http://www.w3.org/2000/svg">
<path fill-rule="evenodd" clip-rule="evenodd" d="M4.98331 0.897461C2.23111 0.897461 0 2.42377 0 4.30655C0 6.18935 2.23111 7.71564 4.98331 7.71564C7.73553 7.71564 9.96662 6.18935 9.96662 4.30655C9.96662 2.42377 7.73553 0.897461 4.98331 0.897461ZM1.99332 4.30655C1.99332 3.17687 3.33198 2.2611 4.98331 2.2611C6.63464 2.2611 7.9733 3.17687 7.9733 4.30655C7.9733 5.43623 6.63464 6.35201 4.98331 6.35201C3.33198 6.35201 1.99332 5.43623 1.99332 4.30655ZM16.9433 0.897461C14.1911 0.897461 11.9599 2.42377 11.9599 4.30655C11.9599 6.18935 14.1911 7.71564 16.9433 7.71564C19.6954 7.71564 21.9266 6.18935 21.9266 4.30655C21.9266 2.42377 19.6954 0.897461 16.9433 0.897461ZM13.9533 4.30655C13.9533 3.17687 15.2919 2.2611 16.9433 2.2611C18.5945 2.2611 19.9332 3.17687 19.9332 4.30655C19.9332 5.43623 18.5945 6.35201 16.9433 6.35201C15.2919 6.35201 13.9533 5.43623 13.9533 4.30655ZM0 12.4884C0 10.6056 2.23111 9.07928 4.98331 9.07928C7.73553 9.07928 9.96662 10.6056 9.96662 12.4884C9.96662 14.3711 7.73553 15.8975 4.98331 15.8975C2.23111 15.8975 0 14.3711 0 12.4884ZM4.98331 10.4429C3.33198 10.4429 1.99332 11.3587 1.99332 12.4884C1.99332 13.618 3.33198 14.5338 4.98331 14.5338C6.63464 14.5338 7.9733 13.618 7.9733 12.4884C7.9733 11.3587 6.63464 10.4429 4.98331 10.4429ZM16.9433 9.07928C14.1911 9.07928 11.9599 10.6056 11.9599 12.4884C11.9599 14.3711 14.1911 15.8975 16.9433 15.8975C19.6954 15.8975 21.9266 14.3711 21.9266 12.4884C21.9266 10.6056 19.6954 9.07928 16.9433 9.07928ZM13.9533 12.4884C13.9533 11.3587 15.2919 10.4429 16.9433 10.4429C18.5945 10.4429 19.9332 11.3587 19.9332 12.4884C19.9332 13.618 18.5945 14.5338 16.9433 14.5338C15.2919 14.5338 13.9533 13.618 13.9533 12.4884Z" fill="#8D92AE"/>
</svg>
