<svg width="20" height="13" viewBox="0 0 20 13" fill="none" xmlns="http://www.w3.org/2000/svg">
<path d="M1.51002 5.89041C1.18223 5.5395 0.650775 5.5395 0.322988 5.89041C-0.00479814 6.24132 -0.00479814 6.81016 0.322988 7.16108L1.51002 5.89041ZM5.39308 11.318L4.79957 11.9533C5.12735 12.3042 5.65881 12.3042 5.9866 11.9533L5.39308 11.318ZM14.9397 2.36887C15.2675 2.01797 15.2675 1.44904 14.9397 1.09814C14.6119 0.747236 14.0806 0.747236 13.7528 1.09814L14.9397 2.36887ZM5.9866 5.89041C5.65881 5.5395 5.12735 5.5395 4.79957 5.89041C4.47178 6.24132 4.47178 6.81016 4.79957 7.16108L5.9866 5.89041ZM9.86966 11.318L9.27618 11.9533C9.60398 12.3042 10.1353 12.3042 10.4631 11.9533L9.86966 11.318ZM19.4163 2.36887C19.7441 2.01797 19.7441 1.44904 19.4163 1.09814C19.0885 0.747236 18.5571 0.747236 18.2293 1.09814L19.4163 2.36887ZM0.322988 7.16108L4.79957 11.9533L5.9866 10.6827L1.51002 5.89041L0.322988 7.16108ZM5.9866 11.9533L14.9397 2.36887L13.7528 1.09814L4.79957 10.6827L5.9866 11.9533ZM4.79957 7.16108L9.27618 11.9533L10.4631 10.6827L5.9866 5.89041L4.79957 7.16108ZM10.4631 11.9533L19.4163 2.36887L18.2293 1.09814L9.27618 10.6827L10.4631 11.9533Z" fill="black"/>
</svg>
