<svg width="20" height="13" viewBox="0 0 20 13" fill="none" xmlns="http://www.w3.org/2000/svg">
<path d="M1.65358 5.78983C1.32579 5.43892 0.794329 5.43892 0.466543 5.78983C0.138757 6.14074 0.138757 6.70958 0.466543 7.06049L1.65358 5.78983ZM5.53664 11.2174L4.94312 11.8527C5.27091 12.2036 5.80237 12.2036 6.13015 11.8527L5.53664 11.2174ZM15.0833 2.26828C15.4111 1.91738 15.4111 1.34845 15.0833 0.99755C14.7555 0.64665 14.2241 0.64665 13.8963 0.99755L15.0833 2.26828ZM6.13015 5.78983C5.80237 5.43892 5.27091 5.43892 4.94312 5.78983C4.61534 6.14074 4.61534 6.70958 4.94312 7.06049L6.13015 5.78983ZM10.0132 11.2174L9.41973 11.8527C9.74753 12.2036 10.2789 12.2036 10.6067 11.8527L10.0132 11.2174ZM19.5599 2.26828C19.8877 1.91738 19.8877 1.34845 19.5599 0.99755C19.2321 0.64665 18.7007 0.64665 18.3729 0.99755L19.5599 2.26828ZM0.466543 7.06049L4.94312 11.8527L6.13015 10.5821L1.65358 5.78983L0.466543 7.06049ZM6.13015 11.8527L15.0833 2.26828L13.8963 0.99755L4.94312 10.5821L6.13015 11.8527ZM4.94312 7.06049L9.41973 11.8527L10.6067 10.5821L6.13015 5.78983L4.94312 7.06049ZM10.6067 11.8527L19.5599 2.26828L18.3729 0.99755L9.41973 10.5821L10.6067 11.8527Z" fill="black"/>
</svg>
