<svg width="24" height="24" viewBox="0 0 24 24" fill="none" xmlns="http://www.w3.org/2000/svg">
<path d="M3 11C3 12.8565 3.7375 14.637 5.05025 15.9497C6.36301 17.2625 8.14348 18 10 18C11.8565 18 13.637 17.2625 14.9497 15.9497C16.2625 14.637 17 12.8565 17 11C17 9.67392 16.4732 8.40215 15.5355 7.46447C14.5979 6.52678 13.3261 6 12 6C10.6739 6 9.40215 6.52678 8.46447 7.46447C7.52678 8.40215 7 9.67392 7 11C7 11.7956 7.31607 12.5587 7.87868 13.1213C8.44129 13.6839 9.20435 14 10 14C10.7956 14 11.5587 13.6839 12.1213 13.1213C12.6839 12.5587 13 11.7956 13 11C13 10.7348 12.8946 10.4804 12.7071 10.2929C12.5196 10.1054 12.2652 10 12 10C11.7348 10 11.4804 10.1054 11.2929 10.2929C11.1054 10.4804 11 10.7348 11 11C11 11.2652 10.8946 11.5196 10.7071 11.7071C10.5196 11.8946 10.2652 12 10 12C9.73478 12 9.48043 11.8946 9.29289 11.7071C9.10536 11.5196 9 11.2652 9 11C9 10.2044 9.31607 9.44129 9.87868 8.87868C10.4413 8.31607 11.2044 8 12 8C12.7956 8 13.5587 8.31607 14.1213 8.87868C14.6839 9.44129 15 10.2044 15 11C15 12.3261 14.4732 13.5979 13.5355 14.5355C12.5979 15.4732 11.3261 16 10 16C8.67392 16 7.40215 15.4732 6.46447 14.5355C5.52678 13.5979 5 12.3261 5 11C5 9.14348 5.7375 7.36301 7.05025 6.05025C8.36301 4.7375 10.1435 4 12 4C13.8565 4 15.637 4.7375 16.9497 6.05025C18.2625 7.36301 19 9.14348 19 11C19 13.3869 18.0518 15.6761 16.364 17.364C14.6761 19.0518 12.3869 20 10 20C9.73478 20 9.48043 20.1054 9.29289 20.2929C9.10536 20.4804 9 20.7348 9 21C9 21.2652 9.10536 21.5196 9.29289 21.7071C9.48043 21.8946 9.73478 22 10 22C12.9174 22 15.7153 20.8411 17.7782 18.7782C19.8411 16.7153 21 13.9174 21 11C21 8.61305 20.0518 6.32387 18.364 4.63604C16.6761 2.94821 14.3869 2 12 2C9.61305 2 7.32387 2.94821 5.63604 4.63604C3.94821 6.32387 3 8.61305 3 11Z" fill="#1E5EFF"/>
</svg>
