<svg width="37" height="37" viewBox="0 0 37 37" fill="none" xmlns="http://www.w3.org/2000/svg">
<path d="M24.2192 12.7801C24.0759 12.6356 23.9054 12.5209 23.7176 12.4426C23.5297 12.3644 23.3282 12.3241 23.1247 12.3241C22.9211 12.3241 22.7196 12.3644 22.5318 12.4426C22.3439 12.5209 22.1734 12.6356 22.0301 12.7801L18.4997 16.3259L14.9692 12.7801C14.6789 12.4898 14.2852 12.3267 13.8747 12.3267C13.4641 12.3267 13.0704 12.4898 12.7801 12.7801C12.4898 13.0704 12.3267 13.4641 12.3267 13.8747C12.3267 14.2852 12.4898 14.6789 12.7801 14.9692L16.3259 18.4997L12.7801 22.0301C12.6356 22.1734 12.5209 22.3439 12.4426 22.5318C12.3644 22.7196 12.3241 22.9211 12.3241 23.1247C12.3241 23.3282 12.3644 23.5297 12.4426 23.7176C12.5209 23.9054 12.6356 24.0759 12.7801 24.2192C12.9234 24.3637 13.0939 24.4784 13.2818 24.5567C13.4696 24.635 13.6711 24.6753 13.8747 24.6753C14.0782 24.6753 14.2797 24.635 14.4676 24.5567C14.6554 24.4784 14.8259 24.3637 14.9692 24.2192L18.4997 20.6734L22.0301 24.2192C22.1734 24.3637 22.3439 24.4784 22.5318 24.5567C22.7196 24.635 22.9211 24.6753 23.1247 24.6753C23.3282 24.6753 23.5297 24.635 23.7176 24.5567C23.9054 24.4784 24.0759 24.3637 24.2192 24.2192C24.3637 24.0759 24.4784 23.9054 24.5567 23.7176C24.635 23.5297 24.6753 23.3282 24.6753 23.1247C24.6753 22.9211 24.635 22.7196 24.5567 22.5318C24.4784 22.3439 24.3637 22.1734 24.2192 22.0301L20.6734 18.4997L24.2192 14.9692C24.3637 14.8259 24.4784 14.6554 24.5567 14.4676C24.635 14.2797 24.6753 14.0782 24.6753 13.8747C24.6753 13.6711 24.635 13.4696 24.5567 13.2818C24.4784 13.0939 24.3637 12.9234 24.2192 12.7801ZM29.3993 7.60008C27.9771 6.12763 26.276 4.95316 24.3951 4.14518C22.5142 3.33721 20.4912 2.91192 18.4442 2.89414C16.3972 2.87635 14.3671 3.26642 12.4725 4.04158C10.5778 4.81674 8.8565 5.96148 7.40899 7.40899C5.96148 8.8565 4.81674 10.5778 4.04158 12.4725C3.26642 14.3671 2.87635 16.3972 2.89414 18.4442C2.91192 20.4912 3.33721 22.5142 4.14518 24.3951C4.95316 26.276 6.12763 27.9771 7.60008 29.3993C9.02222 30.8717 10.7234 32.0462 12.6043 32.8541C14.4852 33.6621 16.5081 34.0874 18.5551 34.1052C20.6022 34.123 22.6322 33.7329 24.5269 32.9578C26.4215 32.1826 28.1428 31.0379 29.5903 29.5903C31.0379 28.1428 32.1826 26.4215 32.9578 24.5269C33.7329 22.6322 34.123 20.6022 34.1052 18.5551C34.0874 16.5081 33.6621 14.4852 32.8541 12.6043C32.0462 10.7234 30.8717 9.02222 29.3993 7.60008ZM27.2255 27.2255C25.2091 29.2442 22.5551 30.5013 19.7157 30.7826C16.8764 31.0639 14.0273 30.3521 11.6539 28.7684C9.28056 27.1846 7.52972 24.827 6.69971 22.0971C5.8697 19.3673 6.01186 16.434 7.10199 13.7972C8.19212 11.1604 10.1628 8.98318 12.6782 7.63641C15.1936 6.28963 18.0981 5.85666 20.897 6.41126C23.6958 6.96586 26.2158 8.47373 28.0275 10.678C29.8393 12.8822 30.8308 15.6464 30.833 18.4997C30.8385 20.1204 30.5225 21.7261 29.9033 23.2239C29.284 24.7217 28.3739 26.0818 27.2255 27.2255Z" fill="#333333"/>
</svg>
