<svg width="12" height="15" viewBox="0 0 12 15" fill="none" xmlns="http://www.w3.org/2000/svg">
<path fill-rule="evenodd" clip-rule="evenodd" d="M11.7903 5.3871L11.7071 5.29289L6.70711 0.292893C6.34662 -0.0675907 5.77939 -0.0953203 5.3871 0.209705L5.29289 0.292893L0.292893 5.29289C-0.0976311 5.68342 -0.0976311 6.31658 0.292893 6.70711C0.653377 7.06759 1.22061 7.09532 1.6129 6.7903L1.70711 6.70711L5.001 3.414L5 14C5 14.5523 5.44772 15 6 15C6.55228 15 7 14.5523 7 14L7.001 3.416L10.2929 6.70711C10.6534 7.06759 11.2206 7.09532 11.6129 6.7903L11.7071 6.70711C12.0676 6.34662 12.0953 5.77939 11.7903 5.3871Z" fill="#1FD286"/>
</svg>
