<svg width="124" height="124" viewBox="0 0 124 124" fill="none" xmlns="http://www.w3.org/2000/svg">
<path d="M95.0554 29.5625H56.676L29.5635 56.675V95.0544L56.676 122.167H95.0554L122.168 95.0544V56.675L95.0554 29.5625ZM111.879 90.7843L90.7853 111.878H60.9461L39.8529 90.7843V60.9451L60.9461 39.8519H90.7853L111.879 60.9451V90.7843Z" fill="#FF0000"/>
<path d="M75.8673 101.588C78.7087 101.588 81.012 99.2849 81.012 96.4435C81.012 93.6022 78.7087 91.2988 75.8673 91.2988C73.026 91.2988 70.7227 93.6022 70.7227 96.4435C70.7227 99.2849 73.026 101.588 75.8673 101.588Z" fill="#FF0000"/>
<path d="M70.7227 50.1426H81.012V86.1554H70.7227V50.1426Z" fill="#FF0000"/>
</svg>
