<svg width="44" height="41" viewBox="0 0 44 41" fill="none" xmlns="http://www.w3.org/2000/svg">
<g clip-path="url(#clip0_273_3150)">
<ellipse cx="22.3887" cy="21.1465" rx="21.5" ry="21" fill="#D3E8D2"/>
<g clip-path="url(#clip1_273_3150)">
<path d="M26.8893 23.7141H25.9718L25.6466 23.4139C26.7848 22.1462 27.4699 20.5005 27.4699 18.7102C27.4699 14.7183 24.0905 11.4824 19.9213 11.4824C15.7521 11.4824 12.3726 14.7183 12.3726 18.7102C12.3726 22.7022 15.7521 25.938 19.9213 25.938C21.791 25.938 23.5098 25.282 24.8337 24.1922L25.1473 24.5036V25.382L30.954 30.9308L32.6843 29.2739L26.8893 23.7141ZM19.9213 23.7141C17.0295 23.7141 14.6952 21.479 14.6952 18.7102C14.6952 15.9414 17.0295 13.7064 19.9213 13.7064C22.813 13.7064 25.1473 15.9414 25.1473 18.7102C25.1473 21.479 22.813 23.7141 19.9213 23.7141Z" fill="#424941"/>
</g>
</g>
<defs>
<clipPath id="clip0_273_3150">
<rect width="42.9179" height="40.9867" fill="white" transform="translate(0.539062 0.0126953)"/>
</clipPath>
<clipPath id="clip1_273_3150">
<rect width="27.8721" height="26.6873" fill="white" transform="translate(8.88867 8.14648)"/>
</clipPath>
</defs>
</svg>
