<svg width="15" height="13" viewBox="0 0 15 13" fill="none" xmlns="http://www.w3.org/2000/svg">
<path d="M7.5 0C7.16848 0 6.85054 0.111798 6.61612 0.310799C6.3817 0.5098 6.25 0.779704 6.25 1.06113V5.30567H1.25C0.918479 5.30567 0.600537 5.41747 0.366116 5.61647C0.131696 5.81547 0 6.08537 0 6.3668C0 6.64823 0.131696 6.91814 0.366116 7.11714C0.600537 7.31614 0.918479 7.42794 1.25 7.42794H6.25V11.6725C6.25 11.9539 6.3817 12.2238 6.61612 12.4228C6.85054 12.6218 7.16848 12.7336 7.5 12.7336C7.83152 12.7336 8.14946 12.6218 8.38388 12.4228C8.6183 12.2238 8.75 11.9539 8.75 11.6725V7.42794H13.75C14.0815 7.42794 14.3995 7.31614 14.6339 7.11714C14.8683 6.91814 15 6.64823 15 6.3668C15 6.08537 14.8683 5.81547 14.6339 5.61647C14.3995 5.41747 14.0815 5.30567 13.75 5.30567H8.75V1.06113C8.75 0.779704 8.6183 0.5098 8.38388 0.310799C8.14946 0.111798 7.83152 0 7.5 0Z" fill="white"/>
</svg>
